<?xml version="1.0" encoding="UTF-8"?><!DOCTYPE svg PUBLIC "-//W3C//DTD SVG 1.1//EN" "http://www.w3.org/Graphics/SVG/1.1/DTD/svg11.dtd"><svg xmlns="http://www.w3.org/2000/svg" xmlns:xlink="http://www.w3.org/1999/xlink"><symbol id="flag-finland" viewBox="0 0 24 24">
<title>Flag of Finland</title>
<circle cx="12" cy="12" r="11" fill="#000" fill-opacity="0.1"/>
<circle cx="12" cy="12" r="10" fill="#fff"/>
<path fill="#002f6c" d="M21.8 14a10.057 10.057 0 000-4H12V2a9.957 9.957 0 00-4 .838V10H2.2a10.057 10.057 0 000 4H8v7.162A9.957 9.957 0 0012 22v-8z"/>
</symbol><symbol id="flag-poland" viewBox="0 0 24 24">
<title>Flag of Poland</title>
<circle cx="12" cy="12" r="11" fill="#000" fill-opacity="0.1"/>
<circle cx="12" cy="12" r="10" fill="#fff"/>
<path fill="#d22730" d="M12 22a10 10 0 0010-10H2a10 10 0 0010 10z"/></symbol><symbol id="flag-spain" viewBox="0 0 24 24">
    <title>Flag of Spain</title>
    <circle cx="12" cy="12" r="11" fill="#000" fill-opacity="0.1"/>
    <circle cx="12" cy="12" r="10" fill="#f1bf00"/>
    <path fill="#aa151b" d="M12 22a9.97 9.97 0 01-7.99-4H20A9.97 9.97 0 0112 22zm0-20a9.97 9.97 0 00-7.99 4H20A9.97 9.97 0 0012 2z"/>
    <g>
        <path fill="#fff" d="M10 16c-1.66 0-3-1.03-3-2v-4h6v4c0 .97-1.34 2-3 2z"/>
        <rect width="3" height="3" x="7" y="10" fill="#aa151b"/>
        <path fill="#aa151b" d="M10 16c1.66 0 3-1.03 3-2v-1h-3z"/>
        <path fill="#fff" d="M6 16H5v-6a.5.5 0 01.5-.5.5.5 0 01.5.5z"/>
        <ellipse cx="10" cy="13" fill="#0044ad" rx=".75" ry="1"/>
        <rect width="1" height="1" x="5" y="15" fill="#0044ad"/>
        <path fill="#fff" d="M15 16h-1v-6a.5.5 0 01.5-.5.5.5 0 01.5.5z"/>
        <rect width="1" height="1" x="14" y="15" fill="#0044ad"/>
        <circle cx="5.5" cy="10" r=".5" fill="#aa151b"/>
        <circle cx="14.5" cy="10" r=".5" fill="#aa151b"/>
        <path fill="#aa151b" d="M8.2 9.5h3.6l.98-.98a.75.75 0 10-1.06-1.06l-.23.23a.75.75 0 00-1.49.06.75.75 0 00-1.49-.06l-.23-.23a.75.75 0 00-1.06 1.06z"/>
    </g>
</symbol><symbol id="flag-sweden" viewBox="0 0 24 24">
<title>Flag of Sweden</title>
<circle cx="12" cy="12" r="11" fill="#000" fill-opacity="0.1"/>
<circle cx="12" cy="12" r="10" fill="#004b87"/>
<path fill="#ffcd00" d="M21.8 14a10.06 10.06 0 000-4H12V2a9.96 9.96 0 00-4 .84V10H2.2a10.06 10.06 0 000 4H8v7.16a9.96 9.96 0 004 .84v-8z"/>
</symbol><symbol id="icon-apple" viewBox="0 0 24 24"><title>Apple</title><path d="M11.8 7.13c-.82 0-2.1-.94-3.44-.9a5.09 5.09 0 00-4.32 2.61c-1.84 3.2-.47 7.92 1.33 10.52.88 1.26 1.92 2.68 3.3 2.64 1.31-.06 1.81-.86 3.41-.86s2.05.86 3.45.83c1.42-.03 2.33-1.3 3.2-2.57a11.35 11.35 0 001.44-2.97 4.6 4.6 0 01-2.8-4.22 4.68 4.68 0 012.26-3.97 4.89 4.89 0 00-3.82-2.06c-1.74-.14-3.2.95-4 .95zm2.94-2.67a4.57 4.57 0 001.08-3.33 4.7 4.7 0 00-3.07 1.58 4.37 4.37 0 00-1.1 3.23 3.9 3.9 0 003.09-1.48"/></symbol><symbol id="icon-attention_circle" viewBox="0 0 24 24">
    <title>Attention</title>
    <path d="M12 22a10 10 0 1 1 10-10 10 10 0 0 1-10 10zm0-18a8 8 0 1 0 8 8 8 8 0 0 0-8-8zm1 2h-2v8h2zm-2 12h2v-2h-2z"/>
</symbol><symbol id="icon-bag" viewBox="0 0 24 24">
    <title>Shopping bag</title>
    <path d="M16 7V6a4 4 0 0 0-8 0v1H5v13h14V7zm-6-1a2 2 0 0 1 4 0v1h-4zm7 12H7V9h1v3h2V9h4v3h2V9h1z"/>
</symbol><symbol id="icon-card" viewBox="0 0 24 24">
    <title>Credit card</title>
    <path d="M18 5H6a3 3 0 0 0-3 3v8a3 3 0 0 0 3 3h12a3 3 0 0 0 3-3V8a3 3 0 0 0-3-3zM6 7h12a1 1 0 0 1 1 1v1H5V8a1 1 0 0 1 1-1zm12 10H6a1 1 0 0 1-1-1v-5h14v5a1 1 0 0 1-1 1z"/>
</symbol><symbol id="icon-checkmark" viewBox="0 0 24 24">
  <title>Checkmark</title>
  <path d="M10 14.6l8.3-8.3 1.4 1.4-9.7 9.7-5.7-5.7 1.4-1.4z"/>
</symbol><symbol id="icon-checkmark_circle" viewBox="0 0 24 24">
    <title>Checkmark</title>
    <path d="M12 22a10 10 0 1 1 10-10 10 10 0 0 1-10 10zm0-18a8 8 0 1 0 8 8 8 8 0 0 0-8-8zm5.7 4.7l-1.4-1.4-6.3 6.3-2.3-2.3-1.4 1.4 3.7 3.7z"/>
</symbol><symbol id="icon-close" viewBox="0 0 24 24">
    <title>Close</title>
    <path d="M18.3 19.7L12 13.4l-6.3 6.3-1.4-1.4 6.3-6.3-6.3-6.3 1.4-1.4 6.3 6.3 6.3-6.3 1.4 1.4-6.3 6.3 6.3 6.3-1.4 1.4z"/>
</symbol><symbol id="icon-close_small" viewBox="0 0 24 24">
    <title>Close</title>
    <path d="M16.7 8.7l-1.4-1.4-3.3 3.3-3.3-3.3-1.4 1.4 3.3 3.3-3.3 3.3 1.4 1.4 3.3-3.3 3.3 3.3 1.4-1.4-3.3-3.3 3.3-3.3z"/>
</symbol><symbol id="icon-contact_support" viewBox="0 0 24 24">
    <title>Customer support</title>
    <path d="M12 3a7 7 0 0 0-7 7v7h3a1 1 0 0 0 1-1v-3a1 1 0 0 0-1-1H7v-2a5 5 0 0 1 10 0v2h-1a1 1 0 0 0-1 1v3a1 1 0 0 0 1 1h1v1a1 1 0 0 1-1 1h-4v2h4a3 3 0 0 0 3-3v-8a7 7 0 0 0-7-7z"/>
</symbol><symbol id="icon-copy" viewBox="0 0 24 24">
    <title>Copy</title>
    <path d="M20 3v15h-2V5H8V3zM4 7v14h12V7zm10 12H6V9h8z"/>
</symbol><symbol id="icon-dashboard" viewBox="0 0 24 24">
    <title>Dashboard</title>
    <path d="M9 6v3H6V6h3m1-2H5a1 1 0 0 0-1 1v5a1 1 0 0 0 1 1h5a1 1 0 0 0 1-1V5a1 1 0 0 0-1-1zm8 2v3h-3V6h3m1-2h-5a1 1 0 0 0-1 1v5a1 1 0 0 0 1 1h5a1 1 0 0 0 1-1V5a1 1 0 0 0-1-1zM9 15v3H6v-3h3m1-2H5a1 1 0 0 0-1 1v5a1 1 0 0 0 1 1h5a1 1 0 0 0 1-1v-5a1 1 0 0 0-1-1zm8 2v3h-3v-3h3m1-2h-5a1 1 0 0 0-1 1v5a1 1 0 0 0 1 1h5a1 1 0 0 0 1-1v-5a1 1 0 0 0-1-1z"/>
</symbol><symbol id="icon-edit" viewBox="0 0 24 24">
    <title>Edit</title>
    <path d="M14.06 9.02l.92.92L5.92 19H5v-.92l9.06-9.06M17.66 3a1 1 0 0 0-.7.29l-1.83 1.83 3.75 3.75 1.83-1.83a1 1 0 0 0 0-1.41l-2.34-2.34a.98.98 0 0 0-.71-.29zm-3.6 3.19L3 17.25V21h3.75L17.81 9.94z"/>
</symbol><symbol id="icon-facebook" viewBox="0 0 24 24">
    <title>Facebook</title>
    <path d="M19.12 4H4.88a.88.88 0 0 0-.88.88v14.24a.88.88 0 0 0 .88.88h7.67v-6.19h-2.08V11.4h2.08V9.61a2.91 2.91 0 0 1 3.1-3.2 17.71 17.71 0 0 1 1.87.1v2.16h-1.27c-1 0-1.2.47-1.2 1.18v1.54h2.4l-.31 2.42h-2.1V20h4.08a.88.88 0 0 0 .88-.88V4.88a.88.88 0 0 0-.88-.88z"/>
</symbol><symbol id="icon-globe" viewBox="0 0 24 24">
    <title>Globe</title>
    <path d="M11.99 2A10 10 0 1 0 22 12 10 10 0 0 0 11.99 2zm6.93 6h-2.95a15.65 15.65 0 0 0-1.38-3.56A8.03 8.03 0 0 1 18.92 8zM12 4.04A14.09 14.09 0 0 1 13.91 8h-3.82A14.09 14.09 0 0 1 12 4.04zM4.26 14a7.82 7.82 0 0 1 0-4h3.38a16.52 16.52 0 0 0-.14 2 16.52 16.52 0 0 0 .14 2zm.82 2h2.95a15.65 15.65 0 0 0 1.38 3.56A7.99 7.99 0 0 1 5.08 16zm2.95-8H5.08a7.99 7.99 0 0 1 4.33-3.56A15.65 15.65 0 0 0 8.03 8zM12 19.96A14.09 14.09 0 0 1 10.09 16h3.82A14.09 14.09 0 0 1 12 19.96zM14.34 14H9.66a14.71 14.71 0 0 1-.16-2 14.59 14.59 0 0 1 .16-2h4.68a14.59 14.59 0 0 1 .16 2 14.71 14.71 0 0 1-.16 2zm.25 5.56A15.65 15.65 0 0 0 15.97 16h2.95a8.03 8.03 0 0 1-4.33 3.56zM16.36 14a16.52 16.52 0 0 0 .14-2 16.52 16.52 0 0 0-.14-2h3.38a7.82 7.82 0 0 1 0 4z"/>
</symbol><symbol id="icon-google_play" viewBox="0 0 24 24"><title>Google Play</title><path d="M5.37 3.23l.05-.05a.96.96 0 01.77-.16l.13.02.16.05.17.08.13.06L20.42 11c.74.42.92 1.03.55 1.55l-.08.1-.07.07-.05.05a1.76 1.76 0 01-.22.17l-.13.08-13.64 7.75a1.2 1.2 0 01-1.34.07l-.07-.06-.05-.05a1.32 1.32 0 01-.32-.84V4.17l.01-.12.02-.14a1.6 1.6 0 01.04-.16 1.4 1.4 0 01.04-.14l.04-.09.05-.09.06-.07.06-.08.05-.05.05-.05z"/></symbol><symbol id="icon-heart" viewBox="0 0 24 24">
    <title>Heart</title>
    <path d="M12 21.04l-7.334-7.336A5.686 5.686 0 0 1 12 5.063a5.686 5.686 0 0 1 7.334 8.641zM8.687 6a3.684 3.684 0 0 0-2.607 6.29L12 18.212l5.92-5.922a3.686 3.686 0 1 0-5.213-5.213L12 7.784l-.707-.707A3.677 3.677 0 0 0 8.687 6z"/>
</symbol><symbol id="icon-heart_filled" viewBox="0 0 24 24">
    <title>Heart filled</title>
    <path d="M12 21.04l-7.334-7.336A5.686 5.686 0 0 1 12 5.063a5.686 5.686 0 0 1 7.334 8.641z"/>
</symbol><symbol id="icon-indicator_down" viewBox="0 0 24 24">
  <title>Indicator down</title>
  <path d="M12 16.4L4.3 8.7l1.4-1.4 6.3 6.3 6.3-6.3 1.4 1.4-7.7 7.7z"/>
</symbol><symbol id="icon-indicator_left" viewBox="0 0 24 24">
    <title>Indicator left</title>
    <path d="M15.7 18.3l-1.4 1.4L6.6 12l7.7-7.7 1.4 1.4L9.4 12l6.3 6.3z"/>
</symbol><symbol id="icon-indicator_right" viewBox="0 0 24 24">
    <title>Indicator right</title>
    <path d="M13.9 12L7.6 5.7 9 4.3l7.7 7.7L9 19.7l-1.4-1.4 6.3-6.3z"/>
</symbol><symbol id="icon-indicator_small_down" viewBox="0 0 24 24">
    <title>Indicator down</title>
    <path d="M12 15.41l-4.7-4.7 1.4-1.42 3.3 3.3 3.3-3.3 1.4 1.42-4.7 4.7z"/>
</symbol><symbol id="icon-indicator_small_left" viewBox="0 0 24 24">
    <title>Indicator left</title>
    <path d="M13.3 16.7L8.58 12l4.7-4.7 1.42 1.4-3.3 3.3 3.3 3.3-1.42 1.4z"/>
</symbol><symbol id="icon-indicator_small_right" viewBox="0 0 24 24">
    <title>Indicator right</title>
    <path d="M10.7 16.7l-1.4-1.4 3.29-3.3-3.3-3.3 1.42-1.4 4.7 4.7-4.7 4.7z"/>
</symbol><symbol id="icon-indicator_small_up" viewBox="0 0 24 24">
    <title>Indicator up</title>
    <path d="M15.3 14.7L12 11.42l-3.3 3.3-1.4-1.42L12 8.6l4.7 4.7-1.4 1.42z"/>
</symbol><symbol id="icon-indicator_up" viewBox="0 0 24 24">
    <title>Indicator up</title>
    <path d="M18.3 16.7L12 10.4l-6.3 6.3-1.4-1.4L12 7.6l7.7 7.7-1.4 1.4z"/>
</symbol><symbol id="icon-instagram" viewBox="0 0 24 24">
    <title>Instagram</title>
    <path d="M12 5c2.28 0 2.55 0 3.45.05a4.72 4.72 0 0 1 1.59.3 2.83 2.83 0 0 1 1.62 1.61 4.72 4.72 0 0 1 .29 1.59c.04.9.05 1.17.05 3.45s0 2.55-.05 3.45a4.72 4.72 0 0 1-.3 1.59 2.83 2.83 0 0 1-1.61 1.62 4.72 4.72 0 0 1-1.59.29c-.9.04-1.17.05-3.45.05s-2.55 0-3.45-.05a4.72 4.72 0 0 1-1.59-.3 2.83 2.83 0 0 1-1.62-1.61 4.72 4.72 0 0 1-.29-1.59C5.01 14.55 5 14.28 5 12s0-2.55.05-3.45a4.72 4.72 0 0 1 .3-1.59 2.83 2.83 0 0 1 1.61-1.62 4.72 4.72 0 0 1 1.59-.29C9.45 5.01 9.72 5 12 5m0-2c-2.44 0-2.75.01-3.71.05a6.6 6.6 0 0 0-2.19.42A4.6 4.6 0 0 0 3.47 6.1a6.6 6.6 0 0 0-.42 2.19C3.01 9.25 3 9.56 3 12s.01 2.75.05 3.71a6.6 6.6 0 0 0 .42 2.19 4.6 4.6 0 0 0 2.63 2.63 6.6 6.6 0 0 0 2.19.42c.96.04 1.27.05 3.71.05s2.75-.01 3.71-.05a6.6 6.6 0 0 0 2.19-.42 4.6 4.6 0 0 0 2.63-2.63 6.6 6.6 0 0 0 .42-2.19c.04-.96.05-1.27.05-3.71s-.01-2.75-.05-3.71a6.6 6.6 0 0 0-.42-2.19 4.6 4.6 0 0 0-2.63-2.63 6.6 6.6 0 0 0-2.19-.42C14.75 3.01 14.44 3 12 3zm0 5a4 4 0 1 0 4 4 4 4 0 0 0-4-4zm0 6a2 2 0 1 1 2-2 2 2 0 0 1-2 2zm4.5-7.5a1 1 0 1 0 1 1 1 1 0 0 0-1-1z"/>
</symbol><symbol id="icon-installment_plan" viewBox="0 0 24 24">
    <title>Installment plan</title>
    <path d="M19 3h-1V1h-2v2H8V1H6v2H5a2 2 0 0 0-2 2v14a2 2 0 0 0 2 2h14a2 2 0 0 0 2-2V5a2 2 0 0 0-2-2zm0 16H5V5h14zm-4.56-6.03a2.5 2.5 0 0 1-4.6.03H12v-2H9.85a2.5 2.5 0 0 1 4.55-.07l1.8-.86a4.5 4.5 0 0 0-8.44.93H7v2h.76a4.5 4.5 0 0 0 8.52.75z"/>
</symbol><symbol id="icon-invoices" viewBox="0 0 24 24">
    <title>Invoices</title>
    <path d="M4 4v17.72l4.5-2.57 3.5 2 3.5-2 4.5 2.57V4zm14 14.28l-2.5-1.43-3.5 2-3.5-2L6 18.28V6h12zM7.76 12.5H7v-2h.76a4.54 4.54 0 0 1 .23-.75 4.5 4.5 0 0 1 8.21-.18l-1.8.86a2.5 2.5 0 0 0-4.55.07H12v2H9.85a2.48 2.48 0 0 0 1.31 1.3 2.5 2.5 0 0 0 3.28-1.33l1.84.78a4.47 4.47 0 0 1-8.52-.75z"/>
</symbol><symbol id="icon-left_arrow" viewBox="0 0 24 24">
    <title>Arrow left</title>
    <path d="M9.3 18.7L2.6 12l6.7-6.7 1.4 1.4L6.4 11H21v2H6.4l4.3 4.3-1.4 1.4z"/>
</symbol><symbol id="icon-linkedin" viewBox="0 0 24 24">
    <title>Linkedin</title>
    <path d="M8 18H5V8.67h3zM6.5 7.37a1.69 1.69 0 1 1 1.7-1.69 1.66 1.66 0 0 1-1.7 1.69zM19 18h-3v-5.1c0-1.5-.68-1.96-1.5-1.96-.87 0-1.56.65-1.56 2V18H10V8.67h2.83v1.3h.03A3.07 3.07 0 0 1 15.6 8.4c1.64 0 3.41.97 3.41 3.82z"/>
</symbol><symbol id="icon-list" viewBox="0 0 24 24">
    <title>List</title>
    <path d="M4 7h2v2H4zm0 6h2v-2H4zm0 4h2v-2H4zm4-8h12V7H8zm0 4h12v-2H8zm0 4h12v-2H8z"/>
</symbol><symbol id="icon-location" viewBox="0 0 24 24">
    <title>Location</title>
    <path d="M12 22.3l-.6-.5C6.4 18 4 14 4 10a8.2 8.2 0 0 1 8-8 8.2 8.2 0 0 1 8 8c0 4-2.6 8.2-7.4 11.8zM12 4a6.2 6.2 0 0 0-6 6c0 3.1 2 6.5 6 9.7 3.9-3 6-6.5 6-9.7a6.2 6.2 0 0 0-6-6zm0 10a4 4 0 1 1 4-4 4 4 0 0 1-4 4zm0-6a2 2 0 1 0 2 2 2 2 0 0 0-2-2z"/>
</symbol><symbol id="icon-mail" viewBox="0 0 24 24">
    <title>Mail</title>
    <path d="M20 5H4a1 1 0 0 0-1 1v12a1 1 0 0 0 1 1h16a1 1 0 0 0 1-1V6a1 1 0 0 0-1-1zm-1.7 2L12 11.8 5.7 7zM5 17V9l7 5.3L19 9v8z"/>
</symbol><symbol id="icon-mash_account" viewBox="0 0 24 24">
    <title>Wallet</title>
    <path d="M22 8h-1V6a2 2 0 0 0-2-2H5a2 2 0 0 0-2 2v12a2 2 0 0 0 2 2h14a2 2 0 0 0 2-2v-2h1zm-3 10H5V6h14v2h-5a4 4 0 0 0 0 8h5zm1-4h-6a2 2 0 0 1 0-4h6zm-6-2a1 1 0 1 1 1 1 1 1 0 0 1-1-1z"/>
</symbol><symbol id="icon-menu" viewBox="0 0 24 24">
    <title>Menu</title>
    <path d="M21,20H3V18H21Zm-4-7H3V11H17Zm4-7H3V4H21Z"/>
</symbol><symbol id="icon-message" viewBox="0 0 24 24">
    <title>Message</title>
    <path d="M15.5 20.62a1.5 1.5 0 0 1-.77-.22l-4-2.4h-4.6A3.07 3.07 0 0 1 3 15V8a3.07 3.07 0 0 1 3.13-3h11.74A3.07 3.07 0 0 1 21 8v7a3.07 3.07 0 0 1-3.13 3H17v1.12a1.5 1.5 0 0 1-1.5 1.5zM6.13 7A1.09 1.09 0 0 0 5 8v7a1.09 1.09 0 0 0 1.13 1h5.15L15 18.23V16h2.87A1.09 1.09 0 0 0 19 15V8a1.09 1.09 0 0 0-1.13-1z"/>
</symbol><symbol id="icon-minus" viewBox="0 0 24 24">
    <title>Minus sign</title>
    <path d="M6 11h12v2H6z"/>
</symbol><symbol id="icon-more" viewBox="0 0 24 24">
    <title>Show more</title>
    <path d="M12 8a2 2 0 1 0-2-2 2 2 0 0 0 2 2zm0 2a2 2 0 1 0 2 2 2 2 0 0 0-2-2zm0 6a2 2 0 1 0 2 2 2 2 0 0 0-2-2z"/>
</symbol><symbol id="icon-notifications" viewBox="0 0 24 24">
    <title>Notifications</title>
    <path d="M16.2 14.6a1 1 0 0 1-.2-.6V9a4 4 0 0 0-8 0v5.2a1 1 0 0 1-.2.6L7 16h10.2zM6 13.9V9a6 6 0 0 1 12 0v4.7l1.8 2.7A1 1 0 0 1 19 18H5a1 1 0 0 1-.8-1.6zM9 19h6s0 2-3 2-3-2-3-2z"/>
</symbol><symbol id="icon-overall_balance" viewBox="0 0 24 24">
    <title>Overall balance</title>
    <path d="M12 22a10 10 0 1 1 10-10 10.01 10.01 0 0 1-10 10zm0-18a8 8 0 1 0 8 8 8 8 0 0 0-8-8zm2.44 8.97a2.5 2.5 0 0 1-4.6.03H12v-2H9.85a2.5 2.5 0 0 1 4.55-.07l1.8-.86a4.5 4.5 0 0 0-8.44.93H7v2h.76a4.5 4.5 0 0 0 8.52.75z"/>
</symbol><symbol id="icon-phone" viewBox="0 0 24 24">
    <title>Phone</title>
    <path d="M20.3 16.3l-2.6-2.6a1 1 0 0 0-1.4 0L15 15 9 9l1.3-1.3a1 1 0 0 0 0-1.4L7.7 3.7a1 1 0 0 0-1.4 0L5 5a2.8 2.8 0 0 0 0 4l2 2 6 6 2 2a2.8 2.8 0 0 0 4 0l1.3-1.3a1 1 0 0 0 0-1.4z"/>
</symbol><symbol id="icon-plus" viewBox="0 0 24 24">
  <title>Plus sign</title>
  <path d="M18 11h-5V6h-2v5H6v2h5v5h2v-5h5v-2z"/>
</symbol><symbol id="icon-profile" viewBox="0 0 24 24">
  <title>User profile</title>
  <path d="M22,12A10,10,0,1,0,4.55829,18.66345l.00128.00208A9.9747,9.9747,0,0,0,11.99854,22h.00292a9.97392,9.97392,0,0,0,7.439-3.33447l.00214-.0036A9.93586,9.93586,0,0,0,22,12ZM12,4a7.99133,7.99133,0,0,1,6.605,12.50244c-.0827-.07312-.17212-.13708-.257-.20727-.14441-.12-.28729-.2417-.4375-.35285-.02869-.02112-.0592-.03924-.08807-.06006a9.82961,9.82961,0,0,0-2.997-1.46728c-.05652-.01679-.11182-.03693-.16858-.05261-.19049-.05231-.38434-.09327-.57855-.13428-.12232-.02612-.24372-.05438-.36713-.07593-.16-.02759-.322-.047-.48407-.06689-.15918-.01984-.31811-.03882-.4787-.051-.05884-.00439-.11609-.01526-.17511-.01868-.09485-.00537-.18835.00037-.283-.00238C12.19379,14.01044,12.09833,14,12.00146,14h-.00292c-.06678,0-.13257.00781-.19922.00916-.16364.00311-.326.01141-.48841.0224-.14184.00982-.28289.02209-.4237.038q-.27531.03048-.547.0755c-.11072.01874-.22046.04028-.33026.06268-.20422.04126-.40686.087-.60755.14093-.08154.0221-.1618.04724-.24267.07129-.21826.06476-.43475.13361-.64783.21332-.0636.02374-.12549.05121-.1886.07629-.22058.08771-.43939.17884-.6535.28247-.06305.0304-.12341.06574-.18579.09742-.20691.10565-.413.21258-.61292.33313-.095.057-.18493.12243-.27807.18261-.16211.10529-.32624.20661-.48291.32184q-.3685.26971-.71314.57349A7.98767,7.98767,0,0,1,12,4Zm0,16h-.00146a7.97457,7.97457,0,0,1-5.27448-1.99689q.23594-.20865.487-.39673c.03265-.02465.06311-.05285.09607-.077a7.97886,7.97886,0,0,1,2.98633-1.34271c.04046-.00885.08166-.0149.12231-.02308.21826-.04431.43866-.0802.66107-.1062.07727-.00885.15515-.014.23285-.02063.1864-.01623.37366-.02691.56195-.03.10334-.00146.207.00037.31086.00287.13836.00318.276.01172.41339.022a8.0725,8.0725,0,0,1,1.12524.159c.0838.01856.16492.046.24793.0672a7.90146,7.90146,0,0,1,.85864.27277c.11316.04309.22748.08289.33856.131a7.86061,7.86061,0,0,1,.9328.48029c.09906.05951.19391.12573.29041.18957a7.93437,7.93437,0,0,1,.77178.57837c.03742.03192.07734.06036.11426.093A7.97035,7.97035,0,0,1,12.00146,20Zm0-7A4,4,0,1,0,8,9,4.00458,4.00458,0,0,0,12,13Zm0-6a2,2,0,1,1-2,2A2.002,2.002,0,0,1,12,7Z" fill="#fff"/>
</symbol><symbol id="icon-question_circle" viewBox="0 0 24 24">
    <title>Question mark</title>
    <path d="M12 22a10 10 0 1 1 10-10 10 10 0 0 1-10 10zm0-18a8 8 0 1 0 8 8 8 8 0 0 0-8-8zm1 9.9A4 4 0 1 0 8 10h2a2 2 0 1 1 2 2h-1v3h2zM11 18h2v-2h-2z"/>
</symbol><symbol id="icon-right_arrow" viewBox="0 0 24 24">
    <title>Arrow right</title>
    <path d="M14.7 18.7l-1.4-1.4 4.3-4.3H3v-2h14.6l-4.3-4.3 1.4-1.4 6.7 6.7-6.7 6.7z"/>
</symbol><symbol id="icon-search" viewBox="0 0 24 24">
    <title>Search</title>
    <path d="M21.7 20.3l-4.53-4.54a8.52 8.52 0 1 0-1.41 1.41l4.53 4.54zM4 10.5a6.5 6.5 0 1 1 6.5 6.5A6.5 6.5 0 0 1 4 10.5z"/>
</symbol><symbol id="icon-settings" viewBox="0 0 24 24">
    <title>Settings</title>
    <path d="M19.43 12.98a7.793 7.793 0 0 0 .07-.98 7.793 7.793 0 0 0-.07-.98l2.11-1.65a.504.504 0 0 0 .12-.64l-2-3.46a.5.5 0 0 0-.44-.25.467.467 0 0 0-.17.03l-2.49 1a7.306 7.306 0 0 0-1.69-.98l-.38-2.65A.488.488 0 0 0 14 2h-4a.488.488 0 0 0-.49.42l-.38 2.65a7.683 7.683 0 0 0-1.69.98l-2.49-1a.566.566 0 0 0-.18-.03.495.495 0 0 0-.43.25l-2 3.46a.493.493 0 0 0 .12.64l2.11 1.65a7.93 7.93 0 0 0-.07.98 7.93 7.93 0 0 0 .07.98l-2.11 1.65a.504.504 0 0 0-.12.64l2 3.46a.5.5 0 0 0 .44.25.467.467 0 0 0 .17-.03l2.49-1a7.306 7.306 0 0 0 1.69.98l.38 2.65A.488.488 0 0 0 10 22h4a.488.488 0 0 0 .49-.42l.38-2.65a7.683 7.683 0 0 0 1.69-.98l2.49 1a.566.566 0 0 0 .18.03.495.495 0 0 0 .43-.25l2-3.46a.504.504 0 0 0-.12-.64zm-1.98-1.71a5.343 5.343 0 0 1 .05.73c0 .21-.02.43-.05.73l-.14 1.13.89.7 1.08.84-.7 1.21-1.27-.51-1.04-.42-.9.68a5.857 5.857 0 0 1-1.25.73l-1.06.43-.16 1.13-.2 1.35h-1.4l-.19-1.35-.16-1.13-1.06-.43a5.674 5.674 0 0 1-1.23-.71l-.91-.7-1.06.43-1.27.51-.7-1.21 1.08-.84.89-.7-.14-1.13c-.03-.31-.05-.54-.05-.74s.02-.43.05-.73l.14-1.13-.89-.7-1.08-.84.7-1.21 1.27.51 1.04.42.9-.68a5.857 5.857 0 0 1 1.25-.73l1.06-.43.16-1.13.2-1.35h1.39l.19 1.35.16 1.13 1.06.43a5.674 5.674 0 0 1 1.23.71l.91.7 1.06-.43 1.27-.51.7 1.21-1.07.85-.89.7zM12 8a4 4 0 1 0 4 4 3.999 3.999 0 0 0-4-4zm0 6a2 2 0 1 1 2-2 2.006 2.006 0 0 1-2 2z"/>
</symbol><symbol id="icon-shop" viewBox="0 0 24 24">
    <title>Shop</title>
    <path d="M15 21H4v-6h2v4h7v-4h2zm-7.57-7.85l.07-.06a3.24 3.24 0 0 0 4.5 0 3.25 3.25 0 0 0 4.5 0l.23.2a3.27 3.27 0 0 0 2.78.61A3.34 3.34 0 0 0 22 10.61a4.76 4.76 0 0 0-.25-1.5l-1.57-4.74A2 2 0 0 0 18.28 3H5.72a2 2 0 0 0-1.9 1.37L2.24 9.1A4.76 4.76 0 0 0 2 10.6a3.35 3.35 0 0 0 2.92 3.37l.32.01a3.26 3.26 0 0 0 2.19-.84zm12.43-3.42a2.77 2.77 0 0 1 .14.88 1.35 1.35 0 0 1-.94 1.35 1.26 1.26 0 0 1-1.09-.24 1.24 1.24 0 0 1-.47-.98h-2a1.25 1.25 0 0 1-2.5 0h-2a1.25 1.25 0 0 1-2.5 0h-2A1.25 1.25 0 0 1 5.12 12 1.34 1.34 0 0 1 4 10.6a2.77 2.77 0 0 1 .14-.87L5.72 5h12.56zM20 15h-2v6h2z"/>
</symbol><symbol id="icon-transfer" viewBox="0 0 24 24">
    <title>Transfer</title>
    <path d="M17 11H4V9h11V6l5 5zm3 2H4l5 5v-3h11z"/>
</symbol><symbol id="icon-twitter" viewBox="0 0 24 24">
  <title>Twitter</title>
  <path d="M9.026,18.505a9.2809,9.2809,0,0,0,9.34134-9.34133c0-.14086,0-.28172-.00641-.42257A6.68875,6.68875,0,0,0,20,7.038a6.654,6.654,0,0,1-1.88876.5186,3.30313,3.30313,0,0,0,1.447-1.81833,6.53037,6.53037,0,0,1-2.08723.79392,3.284,3.284,0,0,0-5.67907,2.2473,3.62887,3.62887,0,0,0,.08323.7491A9.323,9.323,0,0,1,5.10764,6.09684a3.29635,3.29635,0,0,0,1.018,4.38575,3.32075,3.32075,0,0,1-1.48539-.40976v.04482a3.29,3.29,0,0,0,2.63145,3.22049,3.30239,3.30239,0,0,1-1.479.05762,3.283,3.283,0,0,0,3.06682,2.27931,6.58487,6.58487,0,0,1-4.07843,1.40856A6.31849,6.31849,0,0,1,4,17.03882,9.339,9.339,0,0,0,9.026,18.505"/>
</symbol><symbol id="icon-youtube" viewBox="0 0 24 24">
    <title>YouTube</title>
    <path d="M20.62 7.64a2.26 2.26 0 0 0-1.59-1.6A53.44 53.44 0 0 0 12 5.66a53.44 53.44 0 0 0-7.03.38 2.26 2.26 0 0 0-1.6 1.6A23.72 23.72 0 0 0 3 12a23.72 23.72 0 0 0 .38 4.36 2.26 2.26 0 0 0 1.59 1.6 53.45 53.45 0 0 0 7.03.38 53.45 53.45 0 0 0 7.03-.38 2.26 2.26 0 0 0 1.6-1.6A23.73 23.73 0 0 0 21 12a23.73 23.73 0 0 0-.38-4.36zM10 15V9l5 3z"/>
</symbol><symbol id="logo-mash_r" viewBox="0 0 390 96">
  <g>
    <path d="M337.189 95V58.514c0-8.835-5.878-13.556-12.756-13.556-7.25 0-12.752 5.133-12.752 13.556l-10.118.698c0-14.089 7.748-33.933 29.658-33.933 19.538 0 27.819 14.204 27.819 33.235V95zm-90.672 1c18.355 0 29.62-8.204 29.62-22.16 0-15.637-14.416-19.355-24.943-22.07-5.967-1.539-10.679-2.755-10.679-5.48 0-2.636 2.246-4.148 6.162-4.148 9.283 0 21.7 6.083 21.7 6.083l6.905-14.982s-12.73-7.996-27.724-7.996c-17.055 0-28.076 8.649-28.076 22.034 0 15.323 13.895 19.213 24.04 21.77 6.12 1.54 10.954 2.758 10.954 5.906 0 2.598-2.64 3.985-6.972 3.985-9.99 0-23.22-6.882-23.22-6.882l-7.387 15.666S231.137 96 246.517 96m-65.732-35.44c0-9.43-5.973-17.075-15.419-17.075-8.515 0-15.418 7.645-15.418 17.075s6.903 17.075 15.418 17.075c9.446 0 15.419-7.645 15.419-17.075m8.807.064c0 21.464-9.383 35.376-28.145 35.376-20.607 0-33.437-15.839-33.437-35.376s12.83-35.377 33.437-35.377c18.734 0 28.145 13.857 28.145 35.377M69.21 95V58.514c0-19.031-8.282-33.235-27.82-33.235-21.91 0-29.658 19.844-29.658 33.933l10.118-.698c0-8.423 5.502-13.556 12.753-13.556 6.877 0 12.755 4.72 12.755 13.556V95z" opacity=".85"/>
    <path d="M311.68 95h-21.85V0h21.85zM202.637 26.247h-21.851V95h21.851zm-115.72-.969a32.018 32.018 0 0 0-23.966 9.957c4.276 5.896 6.26 14.006 6.26 23.279 0-8.423 5.503-13.556 12.753-13.556 6.878 0 12.756 4.72 12.756 13.556V95h21.851V58.514c0-20.725-10.21-33.236-29.654-33.236zm-65.065.97H0V95h21.851z"/>
  </g>
  <path d="M379.5 47A10.5 10.5 0 1 1 390 36.5 10.5 10.5 0 0 1 379.5 47zm0-19.811a9.311 9.311 0 1 0 9.311 9.311 9.311 9.311 0 0 0-9.311-9.311zm2.894 14.113l-2.088-2.981a9.55 9.55 0 0 1-.61.027h-2.399v2.954h-1.387v-9.707h3.786a4.509 4.509 0 0 1 2.972.901 3.05 3.05 0 0 1 1.082 2.482 3.243 3.243 0 0 1-.555 1.914 3.148 3.148 0 0 1-1.585 1.151l2.302 3.26zm-.735-4.701a2.238 2.238 0 0 0 0-3.24 3.118 3.118 0 0 0-2.01-.56h-2.358v4.369h2.358a3.102 3.102 0 0 0 2.01-.569z"/>
</symbol></svg>